%FSTAX23Y23*%
%MOMM*%
%SFA1B1*%

%IPPOS*%
%AMD23*
4,1,4,0.894080,-0.416560,0.416560,0.894080,-0.894080,0.416560,-0.416560,-0.894080,0.894080,-0.416560,0.0*
%
%ADD15R,1.456197X1.304637*%
%ADD21C,1.099998*%
%ADD22C,1.399997*%
G04~CAMADD=23~10~0.0~551.2~0.0~0.0~0.0~0.0~0~0.0~0.0~0.0~0.0~0~0.0~0.0~0.0~0.0~0~0.0~0.0~0.0~290.0~551.2~0.0*
%ADD23D23*%
%ADD24R,1.399997X1.399997*%
%ADD28C,1.549997*%
%ADD29R,1.549997X1.549997*%
%ADD35R,1.075998X1.425997*%
%ADD36R,1.425997X1.075998*%
%ADD37C,2.075996*%
%ADD38C,3.575993*%
%ADD39R,1.575997X1.575997*%
%ADD40C,1.575997*%
%ADD41C,1.703197*%
%LNthrottlerlidpcb_soldermask_bot-1*%
%LPD*%
G54D15*
X-44958Y44239D03*
Y42628D03*
X-50038Y40806D03*
Y42418D03*
X-42197Y44051D03*
Y45663D03*
G54D21*
X-51925Y43092D03*
X-21557Y-15671D03*
X-10469Y-07316D03*
G54D22*
X-41709Y48939D03*
X-44058Y48084D03*
X-46407Y47229D03*
X-48756Y46374D03*
X-19558Y-19771D03*
Y-17272D03*
X-28557Y-15653D03*
Y-18153D03*
Y-20653D03*
G54D23*
X-51106Y45519D03*
G54D24*
X-19558Y-22271D03*
X-28557Y-13153D03*
G54D28*
X-06369Y-05316D03*
G54D29*
X-08869Y-05316D03*
G54D35*
X-38215Y4699D03*
X-40015D03*
G54D36*
X-52578Y39485D03*
Y41285D03*
X-47244Y41263D03*
Y43063D03*
G54D37*
X-2794Y4572D03*
Y4318D03*
X-1778Y3937D03*
Y4318D03*
Y4572D03*
X-2794Y3937D03*
X-3048Y254D03*
Y2286D03*
X-2032Y1905D03*
Y2286D03*
Y254D03*
X-3048Y1905D03*
X-0635Y2032D03*
X0Y1016D03*
X-0254D03*
X-0635D03*
X-0254Y2032D03*
X0D03*
X-2159Y0254D03*
X-1524Y-0762D03*
X-1778D03*
X-2159D03*
X-1778Y0254D03*
X-1524D03*
G54D38*
X-2794Y0762D03*
X-127D03*
Y254D03*
G54D39*
X-02249Y03249D03*
G54D40*
X-02249Y-03249D03*
X02249D03*
G54D41*
X02249Y03249D03*
M02*