%FSTAX23Y23*%
%MOMM*%
%SFA1B1*%

%IPPOS*%
%ADD31C,0.250000*%
%ADD32C,0.200000*%
%ADD33C,0.253999*%
%LNthrottlerlidpcb_legend_bot-1*%
%LPD*%
G54D31*
X-02124Y04549D02*
D01*
D01*
G75*
G03X-02374I-00125J0D01*
G74*G01*
D01*
G75*
G03X-02124I00124J0D01*
G74*G01*
G54D32*
X-51166Y40154D02*
Y42602D01*
X-48909Y40154D02*
Y4307D01*
X-43829Y41975D02*
Y44892D01*
X-46086Y41975D02*
Y44892D01*
X-01126Y-02999D02*
X01126D01*
X02999Y-02377D02*
Y02377D01*
X-02999Y-02377D02*
Y02099D01*
X-01099Y02999D02*
X01126D01*
X-43325Y43399D02*
Y46315D01*
X-41069Y43399D02*
Y46315D01*
G54D33*
X-26416Y37338D02*
X-19304D01*
X-28956Y26924D02*
X-21844D01*
X-26416Y37338D02*
Y47244D01*
X-19304Y37338D02*
Y47244D01*
X-28956Y17018D02*
Y26924D01*
X-21844Y17018D02*
Y26924D01*
X-28956Y17018D02*
X-21844D01*
X-26416Y47244D02*
X-19304D01*
X01524Y11684D02*
Y18796D01*
X-23622Y01016D02*
X-13716D01*
Y-06096D02*
Y01016D01*
X-23622Y-06096D02*
Y01016D01*
Y-06096D02*
X-13716D01*
X-08382Y18796D02*
X01524D01*
X-08382Y11684D02*
Y18796D01*
Y11684D02*
X01524D01*
X00081Y06829D02*
X00335Y07083D01*
X00843*
X01097Y06829*
Y06575*
X00843Y06321*
X00335*
X00081Y06067*
Y05813*
X00335Y05559*
X00843*
X01097Y05813*
X-00426Y07083D02*
Y05559D01*
X-00933Y06067*
X-01441Y05559*
Y07083*
X-02965D02*
X-01949D01*
Y06321*
X-02457Y06575*
X-02711*
X-02965Y06321*
Y05813*
X-02711Y05559*
X-02203*
X-01949Y05813*
X-20441Y0561D02*
X-20187Y05864D01*
X-19679*
X-19425Y0561*
Y05356*
X-19679Y05102*
X-20187*
X-20441Y04848*
Y04594*
X-20187Y0434*
X-19679*
X-19425Y04594*
X-20949Y05864D02*
Y0434D01*
X-21457Y04848*
X-21965Y0434*
Y05864*
X-23234Y0434D02*
Y05864D01*
X-22472Y05102*
X-23488*
X-28213Y29409D02*
X-2796Y29663D01*
X-27452*
X-27198Y29409*
Y29156*
X-27452Y28902*
X-2796*
X-28213Y28648*
Y28394*
X-2796Y2814*
X-27452*
X-27198Y28394*
X-28721Y29663D02*
Y2814D01*
X-29229Y28648*
X-29737Y2814*
Y29663*
X-30245Y29409D02*
X-30499Y29663D01*
X-31007*
X-3126Y29409*
Y29156*
X-31007Y28902*
X-30753*
X-31007*
X-3126Y28648*
Y28394*
X-31007Y2814*
X-30499*
X-30245Y28394*
X-23209Y49355D02*
X-23042Y49521D01*
X-22709*
X-22543Y49355*
Y49188*
X-22709Y49022*
X-23042*
X-23209Y48855*
Y48688*
X-23042Y48522*
X-22709*
X-22543Y48688*
X-23542Y49521D02*
Y48522D01*
X-23876Y48855*
X-24209Y48522*
Y49521*
X-25208Y48522D02*
X-24542D01*
X-25208Y49188*
Y49355*
X-25042Y49521*
X-24709*
X-24542Y49355*
X03127Y12454D02*
X03293Y12287D01*
Y11954*
X03127Y11787*
X0296*
X02794Y11954*
Y12287*
X02627Y12454*
X0246*
X02294Y12287*
Y11954*
X0246Y11787*
X03293Y12787D02*
X02294D01*
X02627Y1312*
X02294Y13453*
X03293*
X02294Y13787D02*
Y1412D01*
Y13953*
X03293*
X03127Y13787*
M02*