%FSTAX23Y23*%
%MOMM*%
%SFA1B1*%

%IPPOS*%
%ADD31C,0.250000*%
%ADD32C,0.200000*%
%ADD33C,0.253999*%
%LNthrottlerlidpcb_legend_top-1*%
%LPD*%
G36*
X-12418Y22733D02*
X-12418Y21972D01*
X-12419Y21971*
X-12421Y2197*
X-12429*
X-13377Y21971*
X-13379Y21973*
X-13378Y22733*
X-12418Y22733*
G37*
G36*
X-13654D02*
X-13654Y21974D01*
X-13654Y21972*
X-13655Y21971*
X-13657Y2197*
X-14032Y21971*
X-14034Y2197*
X-14035Y21966*
X-14035Y21963*
X-14035Y21591*
X-14037Y21589*
X-1404Y21589*
X-14315Y21589*
X-14315*
X-14798Y2159*
X-14798Y22733*
X-13654Y22733*
G37*
G36*
X-11752D02*
X-11751Y2273D01*
X-1175Y22729*
X-11748Y22727*
X-11747Y22726*
X-11746Y22725*
X-11744Y22723*
X-11743Y22723*
X-11742Y22722*
X-11742Y22721*
X-11739Y22718*
X-11738Y22718*
X-11737Y22717*
X-11737Y22716*
X-11735Y22714*
X-11734Y22713*
X-11733Y22712*
X-11732Y22711*
X-1173Y22709*
X-11729Y22708*
X-11728Y22707*
X-11727Y22706*
X-11725Y22704*
X-11724Y22703*
X-11723Y22702*
X-11722Y22701*
X-1172Y22699*
X-11719Y22699*
X-11718Y22698*
X-11718Y22697*
X-11715Y22694*
X-11714Y22694*
X-11713Y22693*
X-11713Y22692*
X-1171Y22689*
X-11709Y22689*
X-11709Y22688*
X-11708Y22687*
X-11705Y22684*
X-11704Y22684*
X-11704Y22683*
X-11703Y22682*
X-117Y22679*
X-11699Y22679*
X-11698Y22677*
X-11696Y22675*
X-11695Y22674*
X-11694Y22674*
X-11694Y22673*
X-11691Y2267*
X-1169Y22669*
X-11689Y22669*
X-11689Y22668*
X-11686Y22665*
X-11685Y22665*
X-11685Y22664*
X-11684Y22663*
X-11681Y2266*
X-1168Y2266*
X-1168Y22659*
X-11679Y22658*
X-11676Y22655*
X-11675Y22655*
X-11675Y22654*
X-11674Y22653*
X-11672Y22651*
X-11671Y2265*
X-1167Y2265*
X-11669Y22649*
X-11667Y22646*
X-11666Y22645*
X-11665Y22645*
X-11664Y22643*
X-11662Y22641*
X-11661Y22641*
X-1166Y2264*
X-1166Y22639*
X-11657Y22636*
X-11656Y22636*
X-11655Y22635*
X-11655Y22634*
X-11653Y22632*
X-11652Y22631*
X-1165Y2263*
X-1165Y22629*
X-11648Y22627*
X-11647Y22626*
X-11646Y22625*
X-11645Y22624*
X-11643Y22622*
X-11642Y22621*
X-11641Y2262*
X-1164Y22619*
X-11638Y22617*
X-11637Y22617*
X-11636Y22616*
X-11636Y22615*
X-11633Y22612*
X-11632Y22612*
X-11631Y22611*
X-11631Y2261*
X-11629Y22608*
X-11627Y22607*
X-11626Y22606*
X-11626Y22605*
X-11623Y22603*
X-11622Y22602*
X-11622Y22601*
X-11621Y226*
X-11618Y22597*
X-11617Y22597*
X-11616Y22595*
X-11614Y22593*
X-11613Y22592*
X-11612Y22592*
X-11612Y22591*
X-11609Y22588*
X-11608Y22587*
X-11607Y22587*
X-11607Y22586*
X-11604Y22583*
X-11603Y22583*
X-11603Y22582*
X-11602Y22581*
X-11599Y22578*
X-11598Y22578*
X-11598Y22577*
X-11597Y22576*
X-11594Y22573*
X-11593Y22573*
X-11592Y22571*
X-1159Y22569*
X-11589Y22568*
X-11588Y22568*
X-11588Y22567*
X-11585Y22564*
X-11584Y22563*
X-11583Y22563*
X-11583Y22562*
X-1158Y22559*
X-11579Y22559*
X-11578Y22558*
X-11578Y22557*
X-11575Y22554*
X-11574Y22554*
X-11573Y22553*
X-11573Y22552*
X-1157Y22549*
X-11569Y22549*
X-11568Y22548*
X-11568Y22547*
X-11566Y22545*
X-11565Y22544*
X-11564Y22543*
X-11563Y22542*
X-11561Y2254*
X-1156Y22539*
X-11559Y22538*
X-11558Y22537*
X-11556Y22535*
X-11555Y22535*
X-11554Y22534*
X-11554Y22533*
X-11551Y2253*
X-1155Y2253*
X-11549Y22529*
X-11549Y22528*
X-11546Y22525*
X-11545Y22525*
X-11544Y22524*
X-11544Y22523*
X-11542Y22521*
X-1154Y2252*
X-1154Y22519*
X-11539Y22518*
X-11536Y22516*
X-11535Y22515*
X-11535Y22514*
X-11534Y22513*
X-11532Y22511*
X-11531Y22511*
X-1153Y2251*
X-1153Y22509*
X-11527Y22506*
X-11526Y22505*
X-11525Y22505*
X-11525Y22504*
X-11522Y22501*
X-11521Y225*
X-1152Y225*
X-1152Y22499*
X-11517Y22496*
X-11516Y22496*
X-11516Y22495*
X-11515Y22494*
X-11512Y22491*
X-11511Y22491*
X-11511Y2249*
X-1151Y22489*
X-11507Y22486*
X-11506Y22486*
X-11505Y22484*
X-11503Y22482*
X-11502Y22481*
X-11501Y22481*
X-11501Y2248*
X-11498Y22477*
X-11497Y22476*
X-11496Y22476*
X-11495Y22475*
X-11493Y22472*
X-11492Y22472*
X-11491Y22471*
X-11491Y2247*
X-11488Y22467*
X-11487Y22467*
X-11486Y22466*
X-11486Y22465*
X-11484Y22463*
X-11483Y22462*
X-11482Y22461*
X-11481Y2246*
X-11479Y22458*
X-11478Y22457*
X-11477Y22456*
X-11476Y22455*
X-11474Y22453*
X-11473Y22452*
X-11472Y22451*
X-11471Y2245*
X-11469Y22448*
X-11468Y22448*
X-11467Y22447*
X-11467Y22446*
X-11464Y22443*
X-11463Y22443*
X-11462Y22441*
X-1146Y22439*
X-11459Y22438*
X-11458Y22437*
X-11457Y22436*
X-11455Y22434*
X-11454Y22433*
X-11453Y22432*
X-11452Y22431*
X-1145Y22429*
X-11449Y22429*
X-11448Y22427*
X-11447Y22426*
X-11445Y22424*
X-11444Y22424*
X-11443Y22423*
X-11443Y22422*
X-1144Y22419*
X-11439Y22418*
X-11438Y22418*
X-11438Y22417*
X-11435Y22414*
X-11434Y22414*
X-11434Y22413*
X-11433Y22412*
X-1143Y22409*
X-11429Y22409*
X-11429Y22408*
X-11428Y22407*
X-11425Y22404*
X-11424Y22404*
X-11423Y22402*
X-11421Y224*
X-1142Y22399*
X-11419Y22399*
X-11419Y22398*
X-11416Y22395*
X-11415Y22394*
X-11414Y22394*
X-11414Y22393*
X-11411Y2239*
X-1141Y2239*
X-1141Y22389*
X-11409Y22388*
X-11406Y22385*
X-11405Y22385*
X-11404Y22384*
X-11404Y22383*
X-11402Y22381*
X-11401Y2238*
X-114Y22379*
X-11399Y22379*
X-11397Y22376*
X-11396Y22375*
X-11395Y22374*
X-11394Y22373*
X-11392Y22371*
X-11391Y2237*
X-1139Y22369*
X-11389Y22368*
X-11387Y22366*
X-11386Y22365*
X-11384Y22363*
X-11382Y22361*
X-11381Y22361*
X-1138Y2236*
X-1138Y22359*
X-11377Y22356*
X-11376Y22356*
X-11375Y22355*
X-11375Y22354*
X-11373Y22352*
X-11372Y22351*
X-11371Y2235*
X-1137Y22349*
X-11368Y22347*
X-11367Y22346*
X-11366Y22345*
X-11365Y22344*
X-11363Y22342*
X-11362Y22342*
X-11361Y22341*
X-11361Y2234*
X-11358Y22337*
X-11357Y22337*
X-11356Y22336*
X-11356Y22335*
X-11353Y22332*
X-11352Y22331*
X-11351Y2233*
X-11348Y22327*
X-11347Y22327*
X-11347Y22326*
X-11346Y22325*
X-11343Y22322*
X-11342Y22322*
X-11342Y22321*
X-11341Y2232*
X-11338Y22317*
X-11337Y22317*
X-11336Y22315*
X-11334Y22313*
X-11333Y22312*
X-11332Y22312*
X-11332Y22311*
X-11329Y22308*
X-11328Y22308*
X-11327Y22307*
X-11327Y22306*
X-11324Y22303*
X-11323Y22303*
X-11323Y22302*
X-11322Y22301*
X-11319Y22298*
X-11318Y22298*
X-11317Y22297*
X-11317Y22296*
X-11314Y22293*
X-11313Y22293*
X-11312Y22291*
X-1131Y22289*
X-11309Y22288*
X-11308Y22287*
X-11307Y22286*
X-11305Y22284*
X-11304Y22283*
X-11303Y22282*
X-11302Y22281*
X-113Y22279*
X-11299Y22279*
X-11298Y22278*
X-11298Y22277*
X-11295Y22274*
X-11294Y22274*
X-11293Y22273*
X-11293Y22272*
X-11291Y2227*
X-1129Y22269*
X-11289Y22268*
X-11288Y22267*
X-11286Y22265*
X-11285Y22264*
X-11284Y22263*
X-11283Y22262*
X-11281Y2226*
X-1128Y22259*
X-11279Y22258*
X-11278Y22257*
X-11276Y22255*
X-11275Y22255*
X-11274Y22254*
X-11274Y22253*
X-11271Y2225*
X-1127Y2225*
X-11269Y22248*
X-11266Y22245*
X-11265Y22245*
X-11265Y22244*
X-11264Y22243*
X-11261Y2224*
X-1126Y2224*
X-1126Y22239*
X-11259Y22238*
X-11256Y22235*
X-11255Y22235*
X-11255Y22234*
X-11254Y22233*
X-11252Y22231*
X-11251Y2223*
X-1125Y2223*
X-1125Y22229*
X-11247Y22226*
X-11246Y22225*
X-11245Y22224*
X-11242Y22221*
X-11241Y22221*
X-11241Y2222*
X-1124Y22219*
X-11237Y22216*
X-11236Y22216*
X-11236Y22215*
X-11235Y22214*
X-11232Y22211*
X-11231Y22211*
X-1123Y22209*
X-11228Y22207*
X-11227Y22206*
X-11226Y22206*
X-11225Y22205*
X-11223Y22202*
X-11222Y22201*
X-11221Y222*
X-1122Y22199*
X-11218Y22197*
X-11217Y22197*
X-11216Y22196*
X-11216Y22195*
X-11213Y22192*
X-11212Y22192*
X-11211Y22191*
X-11211Y2219*
X-11208Y22187*
X-11207Y22187*
X-11206Y22185*
X-11204Y22183*
X-11203Y22182*
X-11202Y22181*
X-11201Y2218*
X-11199Y22178*
X-11198Y22177*
X-11197Y22176*
X-11196Y22175*
X-11194Y22173*
X-11193Y22172*
X-11191Y2217*
X-11189Y22168*
X-11188Y22168*
X-11187Y22167*
X-11187Y22166*
X-11184Y22163*
X-11183Y22163*
X-11182Y22162*
X-11182Y22161*
X-11179Y22158*
X-11178Y22158*
X-11178Y22157*
X-11177Y22156*
X-11174Y22153*
X-11173Y22153*
X-11173Y22152*
X-11172Y22151*
X-1117Y22149*
X-11169Y22148*
X-11168Y22148*
X-11168Y22147*
X-11165Y22144*
X-11164Y22143*
X-11163Y22143*
X-11163Y22142*
X-1116Y22139*
X-11159Y22138*
X-11158Y22137*
X-11155Y22134*
X-11154Y22134*
X-11154Y22133*
X-11153Y22132*
X-1115Y22129*
X-11149Y22129*
X-11149Y22128*
X-11148Y22127*
X-11145Y22124*
X-11144Y22124*
X-11143Y22122*
X-11141Y2212*
X-1114Y22119*
X-11139Y22119*
X-11138Y22118*
X-11136Y22115*
X-11135Y22114*
X-11134Y22113*
X-11133Y22112*
X-11131Y2211*
X-1113Y2211*
X-11129Y22109*
X-11129Y22108*
X-11126Y22105*
X-11125Y22105*
X-11124Y22104*
X-11124Y22103*
X-11122Y22101*
X-11121Y221*
X-1112Y22099*
X-11119Y22098*
X-11117Y22096*
X-11116Y22095*
X-11115Y22094*
X-11114Y22093*
X-11112Y22091*
X-11111Y2209*
X-1111Y22089*
X-11109Y22088*
X-11107Y22086*
X-11106Y22086*
X-11105Y22085*
X-11105Y22084*
X-11102Y22081*
X-11101Y22081*
X-111Y2208*
X-111Y22079*
X-11097Y22077*
X-11096Y22076*
X-11096Y22075*
X-11095Y22074*
X-11092Y22071*
X-11091Y22071*
X-11091Y2207*
X-1109Y22069*
X-11088Y22067*
X-11087Y22066*
X-11086Y22065*
X-11085Y22064*
X-11083Y22062*
X-11082Y22061*
X-11081Y22061*
X-11081Y2206*
X-11078Y22057*
X-11077Y22056*
X-11076Y22056*
X-11076Y22055*
X-11073Y22052*
X-11072Y22052*
X-11072Y22051*
X-11071Y2205*
X-11068Y22047*
X-11067Y22047*
X-11067Y22046*
X-11066Y22045*
X-11064Y22043*
X-11063Y22042*
X-11062Y22041*
X-11061Y2204*
X-11059Y22038*
X-11058Y22037*
X-11057Y22037*
X-11057Y22036*
X-11054Y22033*
X-11053Y22032*
X-11052Y22032*
X-11051Y22031*
X-11049Y22028*
X-11048Y22028*
X-11047Y22027*
X-11047Y22026*
X-11044Y22023*
X-11043Y22023*
X-11042Y22022*
X-11042Y22021*
X-11039Y22018*
X-11038Y22018*
X-11037Y22017*
X-11037Y22016*
X-11035Y22014*
X-11034Y22013*
X-11033Y22012*
X-11032Y22011*
X-1103Y22009*
X-11029Y22008*
X-11028Y22007*
X-11027Y22006*
X-11025Y22004*
X-11024Y22004*
X-11023Y22003*
X-11023Y22002*
X-1102Y21999*
X-11019Y21999*
X-11018Y21998*
X-11018Y21997*
X-11016Y21995*
X-11015Y21994*
X-11013Y21993*
X-11013Y21992*
X-11011Y2199*
X-11009Y21989*
X-11009Y21988*
X-11008Y21987*
X-11006Y21985*
X-11005Y21984*
X-11004Y21983*
X-11003Y21982*
X-11002Y2198*
X-11Y2198*
X-10999Y2198*
Y21836*
Y21836*
X-10999Y21589*
X-11757Y21589*
X-1176Y2159*
X-11762Y21591*
X-11761Y21967*
X-11762Y2197*
X-11766Y21971*
X-11769Y2197*
X-12141Y21971*
X-12143Y21972*
X-12143Y21976*
X-12143Y21978*
X-12142Y22733*
X-11752Y22733*
G37*
G36*
X-10999Y21309D02*
X-10999Y20918D01*
X-11002Y20918*
X-11003Y20917*
X-11005Y20914*
X-11005Y20913*
X-11006Y20913*
X-11008Y20911*
X-11009Y2091*
X-1101Y20909*
X-11011Y20908*
X-11013Y20907*
X-11013Y20905*
X-11014Y209*
X-11015Y20899*
X-11017Y20898*
X-11018Y20897*
X-11018Y20896*
X-11021Y20894*
X-11022Y20893*
X-11022Y20893*
X-11023Y20892*
X-11025Y20889*
X-11026Y20889*
X-11027Y20888*
X-11028Y20886*
X-11027Y20882*
X-1103Y2088*
X-11031Y20879*
X-11032Y20877*
X-11033Y20876*
X-11035Y20875*
X-11036Y20874*
X-11037Y20872*
X-11038Y20871*
X-11039Y2087*
X-1104Y2087*
X-11042Y20868*
X-11042Y20862*
X-11044Y20861*
X-11046Y20859*
X-11048Y20856*
X-11049Y20856*
X-11051Y20854*
X-11051Y20853*
X-11052Y20852*
X-11053Y20851*
X-11056Y2085*
X-11057Y20849*
X-11057Y20842*
X-1106Y2084*
X-11062Y20839*
X-11062Y20838*
X-11064Y20836*
X-11065Y20835*
X-11066Y20834*
X-11067Y20833*
X-11068Y20831*
X-11069Y20831*
X-11071Y20829*
X-11072Y20823*
X-11073Y20822*
X-11074Y20821*
X-11076Y20819*
X-11077Y20818*
X-11077Y20817*
X-11078Y20817*
X-11081Y20814*
X-11082Y20813*
X-11082Y20812*
X-11083Y20812*
X-11085Y20811*
X-11086Y20809*
X-11085Y20805*
X-11086Y20804*
X-11087Y20803*
X-11089Y20801*
X-1109Y20801*
X-11091Y208*
X-11093Y20797*
X-11094Y20797*
X-11095Y20796*
X-11095Y20795*
X-11097Y20793*
X-11098Y20792*
X-111Y20791*
X-111Y20789*
X-111Y20786*
X-11102Y20783*
X-11103Y20783*
X-11105Y20781*
X-11105Y2078*
X-11107Y20779*
X-11108Y20778*
X-1111Y20776*
X-1111Y20775*
X-11112Y20774*
X-11113Y20773*
X-11114Y20772*
X-11115Y20765*
X-11116Y20764*
X-11119Y20763*
X-11121Y2076*
X-11122Y20759*
X-11124Y20756*
X-11125Y20755*
X-11126Y20755*
X-11128Y20753*
X-11129Y20752*
X-11129Y20746*
X-1113Y20745*
X-11133Y20743*
X-11134Y20742*
X-11134Y20741*
X-11136Y20739*
X-11137Y20739*
X-11138Y20738*
X-11139Y20737*
X-11141Y20735*
X-11142Y20734*
X-11143Y20734*
X-11143Y20732*
X-11144Y20727*
X-11145Y20725*
X-11146Y20725*
X-11148Y20724*
X-11148Y20723*
X-1115Y2072*
X-11151Y2072*
X-11153Y20719*
X-11153Y20718*
X-11155Y20716*
X-11156Y20715*
X-11158Y20714*
X-11158Y20712*
X-11159Y20707*
X-11159Y20706*
X-11162Y20705*
X-11163Y20704*
X-11163Y20703*
X-11165Y20701*
X-11166Y207*
X-11167Y20699*
X-11168Y20698*
X-1117Y20696*
X-11171Y20696*
X-11173Y20694*
X-11172Y20689*
X-11174Y20687*
X-11174Y20687*
X-11175Y20686*
X-11178Y20684*
X-11178Y20683*
X-11179Y20682*
X-1118Y20681*
X-11182Y20679*
X-11183Y20678*
X-11184Y20677*
X-11185Y20677*
X-11187Y20675*
X-11187Y20669*
X-11189Y20668*
X-11189Y20667*
X-11191Y20666*
X-11192Y20665*
X-11193Y20663*
X-11194Y20662*
X-11196Y20661*
X-11197Y2066*
X-11198Y20658*
X-11201Y20656*
X-11201Y20656*
X-11202Y20649*
X-11203Y20648*
X-11205Y20647*
X-11206Y20646*
X-11207Y20645*
X-11209Y20643*
X-1121Y20642*
X-11211Y20641*
X-11211Y2064*
X-11213Y20638*
X-11214Y20638*
X-11216Y20636*
X-11216Y2063*
X-11218Y20629*
X-11219Y20628*
X-11221Y20626*
X-11221Y20625*
X-11222Y20624*
X-11223Y20624*
X-11224Y20623*
X-11225Y20622*
X-11225Y20622*
X-11227Y20619*
X-11228Y20619*
X-1123Y20617*
X-1123Y20615*
X-1123Y20612*
X-11231Y2061*
X-11232Y2061*
X-11234Y20608*
X-11235Y20607*
X-11236Y20606*
X-11238Y20604*
X-11239Y20603*
X-11241Y206*
X-11244Y20599*
X-11245Y20597*
X-11245Y20593*
X-11246Y20591*
X-11247Y2059*
X-11248Y2059*
X-1125Y20588*
X-1125Y20587*
X-11252Y20585*
X-11253Y20585*
X-11255Y20583*
X-11255Y20582*
X-11256Y20581*
X-11257Y2058*
X-11259Y20579*
X-11259Y20576*
X-11259Y20573*
X-11261Y20571*
X-11262Y2057*
X-11264Y20569*
X-11264Y20568*
X-11265Y20566*
X-11266Y20566*
X-11268Y20565*
X-11269Y20564*
X-1127Y20563*
X-1127Y20562*
X-11271Y20561*
X-11274Y20559*
X-11274Y20553*
X-11275Y20552*
X-11278Y2055*
X-11279Y20549*
X-11277Y20546*
X-11274Y20545*
X-11274Y20543*
X-11273Y20538*
X-1127Y20536*
X-11269Y20535*
X-11269Y20534*
X-11266Y20532*
X-11265Y20531*
X-11264Y2053*
X-11264Y20529*
X-11263Y20528*
X-11262Y20527*
X-1126Y20525*
X-11259Y20523*
X-1126Y2052*
X-11257Y20518*
X-11256Y20517*
X-11254Y20515*
X-11254Y20514*
X-11252Y20513*
X-11251Y20512*
X-1125Y2051*
X-11249Y20509*
X-11248Y20508*
X-11247Y20508*
X-11245Y20506*
X-11245Y20504*
X-11245Y20502*
X-11245Y205*
X-11243Y20499*
X-11241Y20497*
X-1124Y20495*
X-11239Y20494*
X-11238Y20494*
X-11236Y20492*
X-11235Y20491*
X-11234Y20489*
X-11233Y20488*
X-1123Y20487*
X-1123Y2048*
X-11229Y20479*
X-11227Y20478*
X-11225Y20477*
X-11225Y20476*
X-11224Y20474*
X-11223Y20474*
X-1122Y20472*
X-1122Y20471*
X-11219Y20469*
X-11218Y20469*
X-11216Y20468*
X-11216Y20466*
X-11215Y20461*
X-11214Y2046*
X-11213Y20459*
X-11211Y20458*
X-11211Y20457*
X-1121Y20455*
X-11209Y20455*
X-11208Y20454*
X-11207Y20454*
X-11206Y20453*
X-11205Y2045*
X-11204Y2045*
X-11202Y20449*
X-11201Y20447*
X-11201Y20441*
X-112Y20441*
X-11198Y20439*
X-11197Y20438*
X-11196Y20437*
X-11194Y20435*
X-11193Y20435*
X-11192Y20433*
X-11191Y20432*
X-11189Y20431*
X-11189Y2043*
X-11187Y20429*
X-11187Y20427*
X-11187Y20424*
X-11186Y20422*
X-11185Y20421*
X-11184Y20421*
X-11182Y20418*
X-11181Y20417*
X-1118Y20417*
X-11179Y20416*
X-11177Y20414*
X-11177Y20413*
X-11175Y20412*
X-11174Y20411*
X-11173Y2041*
X-11172Y20407*
X-11173Y20406*
X-11172Y20403*
X-11171Y20402*
X-11168Y20401*
X-11168Y204*
X-11167Y20399*
X-11165Y20396*
X-11164Y20396*
X-11161Y20392*
X-11159Y20391*
X-11158Y2039*
X-11158Y20384*
X-11155Y20382*
X-11153Y2038*
X-11153Y20379*
X-11151Y20377*
X-1115Y20377*
X-11149Y20376*
X-11148Y20375*
X-11146Y20372*
X-11145Y20372*
X-11143Y20371*
X-11143Y20365*
X-11142Y20363*
X-11139Y20362*
X-11137Y20359*
X-11136Y20358*
X-11135Y20357*
X-11134Y20357*
X-11134Y20356*
X-11132Y20354*
X-11131Y20353*
X-11129Y20351*
X-11128Y20345*
X-11128Y20344*
X-11125Y20343*
X-11124Y20342*
X-11124Y20341*
X-11122Y20339*
X-11121Y20338*
X-11119Y20337*
X-11119Y20336*
X-11117Y20334*
X-11116Y20334*
X-11114Y20332*
X-11115Y20327*
X-11113Y20325*
X-11113Y20325*
X-11112Y20324*
X-11109Y20322*
X-11109Y20321*
X-11108Y2032*
X-11107Y2032*
X-11105Y20317*
X-11104Y20316*
X-11103Y20315*
X-11102Y20314*
X-111Y20313*
X-111Y20311*
X-111Y20309*
X-111Y20307*
X-11098Y20305*
X-11096Y20304*
X-11095Y20303*
X-11095Y20302*
X-11094Y20301*
X-11093Y203*
X-11091Y20299*
X-1109Y20298*
X-11089Y20296*
X-11086Y20294*
X-11086Y20294*
X-11085Y20287*
X-11084Y20286*
X-11082Y20285*
X-11081Y20284*
X-1108Y20283*
X-11078Y20281*
X-11076Y2028*
X-11076Y20277*
X-11076Y20275*
X-11076Y20273*
X-11074Y20272*
X-11073Y20271*
X-11072Y2027*
X-11071Y20269*
X-1107Y20267*
X-11069Y20267*
X-11068Y20266*
X-11067Y20265*
X-11067Y20264*
X-11066Y20263*
X-11065Y20262*
X-11062Y2026*
X-11061Y20258*
X-11062Y20256*
X-11061Y20253*
X-1106Y20253*
X-11058Y20251*
X-11057Y2025*
X-11056Y20249*
X-11054Y20247*
X-11053Y20247*
X-11052Y20245*
X-11051Y20244*
X-11049Y20242*
X-11048Y20242*
X-11047Y2024*
X-11046Y20234*
X-11045Y20233*
X-11044Y20232*
X-11042Y2023*
X-11041Y20229*
X-1104Y20228*
X-11039Y20228*
X-11037Y20225*
X-11036Y20224*
X-11035Y20223*
X-11033Y20222*
X-11032Y2022*
X-11032Y20215*
X-11031Y20214*
X-11029Y20212*
X-11028Y20212*
X-11027Y20211*
X-11027Y20209*
X-11026Y20209*
X-11023Y20207*
X-11023Y20206*
X-11022Y20205*
X-11022Y20204*
X-11021Y20204*
X-11018Y20202*
X-11018Y202*
X-11017Y20196*
X-11016Y20194*
X-11015Y20194*
X-11013Y20192*
X-11013Y20191*
X-11011Y20189*
X-1101Y20189*
X-11008Y20187*
X-11008Y20186*
X-11006Y20184*
X-11005Y20184*
X-11004Y20183*
X-11003Y2018*
X-11004Y20177*
X-11002Y20175*
X-11Y20175*
X-10999Y20174*
X-10999Y19784*
X-11759Y19784*
X-11761Y19785*
X-11762Y19786*
X-11761Y20162*
X-11762Y20164*
X-11763Y20165*
X-12141Y20166*
X-12143Y20167*
X-12143Y2017*
X-12143Y20574*
Y20574*
X-12143Y2093*
X-12142Y20932*
X-12139Y20933*
X-12131Y20933*
X-11763Y20933*
X-11762Y20934*
X-11761Y20937*
X-11762Y20941*
X-11761Y21308*
X-1176Y21309*
X-11756Y21309*
X-10999Y21309*
G37*
G36*
X-13371Y20933D02*
X-12421Y20933D01*
X-12419Y20932*
X-12418Y20931*
X-12418Y20929*
X-12418Y20166*
X-12419Y20166*
X-12421Y20165*
X-13377Y20166*
X-13378Y20166*
X-13379Y20168*
Y20502*
Y20503*
X-13378Y20931*
X-13377Y20933*
X-13373Y20933*
X-13371Y20933*
G37*
G36*
X-14036Y21309D02*
X-14035Y21307D01*
X-14035Y20937*
X-14035Y20935*
X-14034Y20933*
X-14032Y20933*
X-13656Y20933*
X-13654Y20932*
X-13654Y2093*
X-13654Y20928*
X-13654Y20171*
X-13653Y20169*
X-13654Y20167*
X-13654Y20166*
X-13656Y20165*
X-14034Y20165*
X-14035Y20163*
X-14035Y2016*
X-14035Y20158*
X-14035Y19785*
X-14037Y19784*
X-14039Y19783*
X-14047Y19784*
X-14798Y19784*
Y20773*
Y20773*
X-14798Y21309*
X-14039Y21309*
X-14036Y21309*
G37*
G36*
X-14037Y19508D02*
X-14035Y19507D01*
X-14035Y18749*
X-14034Y18747*
X-14032Y18746*
X-14025Y18746*
X-13662Y18746*
X-13656Y18746*
X-13654Y18744*
X-13653Y18741*
X-13654Y18739*
X-13654Y17983*
X-14174*
X-14798Y17984*
X-14798Y19508*
X-1405Y19509*
X-14043Y19508*
X-14041Y19509*
X-14037Y19508*
G37*
G36*
X-11747D02*
X-10999Y19508D01*
X-10999Y18737*
X-11002Y18736*
X-11003Y18735*
X-11003Y18734*
X-11005Y18732*
X-11006Y18731*
X-11009Y18729*
X-11009Y18728*
X-1101Y18727*
X-11011Y18726*
X-11013Y18724*
X-11014Y18723*
X-11015Y18722*
X-11016Y18721*
X-11018Y18719*
X-11019Y18718*
X-1102Y18717*
X-11021Y18717*
X-11023Y18714*
X-11024Y18713*
X-11025Y18712*
X-11026Y18712*
X-11028Y1871*
X-11028Y18709*
X-11029Y18708*
X-1103Y18707*
X-11033Y18705*
X-11033Y18704*
X-11034Y18703*
X-11035Y18702*
X-11037Y187*
X-11038Y18699*
X-11039Y18698*
X-1104Y18697*
X-11042Y18695*
X-11043Y18694*
X-11044Y18693*
X-11045Y18693*
X-11047Y1869*
X-11048Y18689*
X-11049Y18688*
X-1105Y18688*
X-11052Y18685*
X-11052Y18685*
X-11053Y18684*
X-11054Y18683*
X-11057Y1868*
X-11058Y18679*
X-11058Y18679*
X-11059Y18678*
X-11062Y18676*
X-11062Y18675*
X-11063Y18674*
X-11064Y18673*
X-11067Y18671*
X-11067Y1867*
X-11068Y18669*
X-11069Y18669*
X-11072Y18666*
X-11072Y18665*
X-11073Y18664*
X-11074Y18664*
X-11076Y18661*
X-11077Y1866*
X-11077Y1866*
X-11078Y18659*
X-11081Y18656*
X-11082Y18655*
X-11082Y18655*
X-11083Y18654*
X-11086Y18652*
X-11086Y18651*
X-11087Y1865*
X-11088Y18649*
X-11091Y18647*
X-11091Y18646*
X-11092Y18645*
X-11093Y18645*
X-11096Y18642*
X-11096Y18641*
X-11097Y1864*
X-11098Y18639*
X-111Y18637*
X-11101Y18636*
X-11102Y18635*
X-11103Y18635*
X-11105Y18632*
X-11106Y18631*
X-11107Y1863*
X-11108Y1863*
X-1111Y18628*
X-1111Y18627*
X-11112Y18625*
X-11113Y18625*
X-11115Y18623*
X-11115Y18622*
X-11116Y18621*
X-11117Y1862*
X-1112Y18618*
X-1112Y18617*
X-11121Y18616*
X-11122Y18615*
X-11124Y18613*
X-11125Y18612*
X-11126Y18611*
X-11127Y18611*
X-11129Y18608*
X-1113Y18607*
X-11131Y18606*
X-11132Y18606*
X-11134Y18604*
X-11134Y18603*
X-11136Y18601*
X-11137Y18601*
X-11139Y18598*
X-11139Y18598*
X-1114Y18597*
X-11141Y18596*
X-11144Y18593*
X-11145Y18592*
X-11145Y18592*
X-11146Y18591*
X-11149Y18589*
X-11149Y18588*
X-1115Y18587*
X-11151Y18586*
X-11154Y18584*
X-11154Y18583*
X-11155Y18582*
X-11156Y18582*
X-11159Y18579*
X-11159Y18578*
X-11162Y18575*
X-11163Y18574*
X-11164Y18573*
X-11164Y18573*
X-11165Y18572*
X-11168Y18569*
X-11169Y18568*
X-11169Y18568*
X-1117Y18567*
X-11173Y18565*
X-11173Y18564*
X-11174Y18563*
X-11175Y18562*
X-11178Y1856*
X-11178Y18559*
X-11179Y18558*
X-1118Y18558*
X-11182Y18555*
X-11183Y18554*
X-11183Y18553*
X-11184Y18553*
X-11187Y1855*
X-11188Y18549*
X-11189Y18548*
X-11189Y18548*
X-11192Y18545*
X-11193Y18544*
X-11194Y18543*
X-11195Y18543*
X-11197Y18541*
X-11197Y1854*
X-11198Y18539*
X-11199Y18538*
X-11202Y18536*
X-11202Y18535*
X-11203Y18534*
X-11204Y18533*
X-11207Y18531*
X-11207Y1853*
X-11208Y18529*
X-11209Y18528*
X-11211Y18526*
X-11212Y18525*
X-11213Y18524*
X-11214Y18524*
X-11216Y18521*
X-11217Y1852*
X-11218Y18519*
X-11219Y18519*
X-11221Y18517*
X-11221Y18516*
X-11222Y18515*
X-11223Y18514*
X-11226Y18512*
X-11226Y18511*
X-11227Y1851*
X-11228Y18509*
X-11231Y18506*
X-11232Y18505*
X-11233Y18504*
X-11236Y18502*
X-11236Y18501*
X-11237Y185*
X-11238Y185*
X-11241Y18497*
X-11241Y18496*
X-11242Y18495*
X-11243Y18495*
X-11246Y18492*
X-11246Y18491*
X-11247Y1849*
X-11248Y1849*
X-1125Y18487*
X-11251Y18486*
X-11251Y18486*
X-11252Y18485*
X-11255Y18483*
X-11255Y18482*
X-11256Y18481*
X-11257Y1848*
X-1126Y18478*
X-1126Y18477*
X-11261Y18476*
X-11262Y18476*
X-11265Y18473*
X-11265Y18472*
X-11266Y18471*
X-11267Y18471*
X-1127Y18468*
X-1127Y18467*
X-11273Y18464*
X-11274Y18463*
X-11275Y18462*
X-11275Y18461*
X-11277Y18461*
X-11279Y18459*
X-11279Y18458*
X-11281Y18456*
X-11282Y18456*
X-11284Y18454*
X-11284Y18453*
X-11285Y18452*
X-11286Y18451*
X-11289Y18449*
X-11289Y18448*
X-1129Y18447*
X-11291Y18446*
X-11293Y18444*
X-11294Y18443*
X-11295Y18442*
X-11296Y18441*
X-11298Y18439*
X-11299Y18438*
X-113Y18437*
X-11301Y18437*
X-11303Y18435*
X-11303Y18434*
X-11305Y18432*
X-11306Y18432*
X-11308Y1843*
X-11308Y18429*
X-11309Y18428*
X-1131Y18427*
X-11313Y18425*
X-11313Y18424*
X-11314Y18423*
X-11315Y18422*
X-11317Y1842*
X-11318Y18419*
X-11319Y18418*
X-1132Y18417*
X-11323Y18415*
X-11323Y18414*
X-11324Y18413*
X-11325Y18413*
X-11327Y1841*
X-11328Y18409*
X-11329Y18408*
X-1133Y18408*
X-11332Y18405*
X-11333Y18404*
X-11333Y18404*
X-11334Y18403*
X-11337Y184*
X-11338Y18399*
X-11341Y18397*
X-11342Y18396*
X-11342Y18395*
X-11343Y18394*
X-11344Y18393*
X-11347Y18391*
X-11347Y1839*
X-11348Y18389*
X-11349Y18389*
X-11352Y18386*
X-11352Y18385*
X-11353Y18384*
X-11354Y18384*
X-11356Y18381*
X-11357Y1838*
X-11357Y18379*
X-11358Y18379*
X-11361Y18376*
X-11362Y18375*
X-11362Y18374*
X-11363Y18374*
X-11366Y18372*
X-11366Y18371*
X-11368Y18369*
X-11369Y18369*
X-11371Y18367*
X-11371Y18366*
X-11372Y18365*
X-11373Y18364*
X-11375Y18362*
X-11376Y18361*
X-11377Y1836*
X-11378Y1836*
X-1138Y18357*
X-11381Y18356*
X-11382Y18355*
X-11383Y18355*
X-11385Y18352*
X-11386Y18351*
X-11387Y1835*
X-11388Y1835*
X-1139Y18348*
X-1139Y18347*
X-11391Y18346*
X-11392Y18345*
X-11395Y18343*
X-11395Y18342*
X-11396Y18341*
X-11397Y1834*
X-114Y18338*
X-114Y18337*
X-11401Y18336*
X-11402Y18335*
X-11404Y18333*
X-11405Y18332*
X-11406Y18331*
X-11407Y18331*
X-1141Y18328*
X-1141Y18327*
X-11411Y18326*
X-11412Y18326*
X-11414Y18323*
X-11415Y18322*
X-11415Y18322*
X-11416Y18321*
X-11419Y18318*
X-1142Y18317*
X-1142Y18317*
X-11421Y18316*
X-11424Y18313*
X-11425Y18312*
X-11425Y18312*
X-11426Y18311*
X-11429Y18309*
X-11429Y18308*
X-1143Y18307*
X-11431Y18307*
X-11434Y18304*
X-11434Y18303*
X-11435Y18302*
X-11436Y18302*
X-11438Y18299*
X-11439Y18298*
X-11439Y18298*
X-1144Y18297*
X-11443Y18294*
X-11444Y18293*
X-11444Y18293*
X-11445Y18292*
X-11448Y1829*
X-11448Y18289*
X-11449Y18288*
X-11451Y18287*
X-11453Y18285*
X-11453Y18284*
X-11454Y18283*
X-11455Y18282*
X-11458Y1828*
X-11458Y18279*
X-11459Y18278*
X-1146Y18277*
X-11463Y18275*
X-11463Y18274*
X-11465Y18272*
X-11467Y1827*
X-11468Y18269*
X-11469Y18268*
X-1147Y18268*
X-11472Y18266*
X-11472Y18265*
X-11474Y18263*
X-11475Y18263*
X-11477Y18261*
X-11477Y1826*
X-11478Y18259*
X-11479Y18258*
X-11482Y18256*
X-11482Y18255*
X-11483Y18254*
X-11484Y18253*
X-11486Y18251*
X-11487Y1825*
X-11488Y18249*
X-11489Y18249*
X-11491Y18246*
X-11492Y18245*
X-11493Y18244*
X-11494Y18244*
X-11496Y18241*
X-11497Y1824*
X-11498Y18239*
X-11499Y18239*
X-11501Y18236*
X-11502Y18235*
X-11502Y18235*
X-11503Y18234*
X-11506Y18231*
X-11507Y1823*
X-11507Y1823*
X-11508Y18229*
X-11511Y18227*
X-11511Y18226*
X-11512Y18225*
X-11513Y18225*
X-11516Y18222*
X-11516Y18221*
X-11517Y1822*
X-11518Y1822*
X-1152Y18217*
X-11521Y18216*
X-11522Y18215*
X-11523Y18215*
X-11525Y18212*
X-11526Y18211*
X-11526Y18211*
X-11527Y1821*
X-1153Y18207*
X-11531Y18206*
X-11531Y18206*
X-11532Y18205*
X-11535Y18203*
X-11535Y18202*
X-11536Y18201*
X-11537Y18201*
X-1154Y18198*
X-1154Y18197*
X-11541Y18196*
X-11542Y18195*
X-11544Y18193*
X-11545Y18192*
X-11546Y18191*
X-11547Y18191*
X-11549Y18188*
X-1155Y18187*
X-11551Y18186*
X-11552Y18186*
X-11554Y18183*
X-11555Y18182*
X-11556Y18181*
X-11557Y18181*
X-11559Y18179*
X-11559Y18178*
X-1156Y18177*
X-11561Y18176*
X-11564Y18174*
X-11564Y18173*
X-11565Y18172*
X-11566Y18171*
X-11568Y18169*
X-11569Y18168*
X-1157Y18167*
X-11571Y18167*
X-11573Y18164*
X-11574Y18163*
X-11575Y18162*
X-11576Y18162*
X-11578Y18159*
X-11579Y18158*
X-11581Y18157*
X-11583Y18154*
X-11584Y18153*
X-11584Y18153*
X-11585Y18152*
X-11588Y18149*
X-11589Y18148*
X-11589Y18148*
X-1159Y18147*
X-11593Y18144*
X-11594Y18143*
X-11594Y18143*
X-11595Y18142*
X-11598Y1814*
X-11598Y18139*
X-11599Y18138*
X-116Y18138*
X-11603Y18135*
X-11603Y18134*
X-11604Y18133*
X-11605Y18133*
X-11607Y1813*
X-11608Y18129*
X-11608Y18129*
X-11609Y18128*
X-11612Y18125*
X-11613Y18124*
X-11613Y18124*
X-11614Y18123*
X-11617Y1812*
X-11618Y18119*
X-11619Y18118*
X-11622Y18116*
X-11622Y18115*
X-11623Y18114*
X-11624Y18114*
X-11626Y18111*
X-11627Y1811*
X-11628Y18109*
X-11629Y18108*
X-11631Y18106*
X-11632Y18105*
X-11633Y18104*
X-11634Y18104*
X-11636Y18101*
X-11637Y181*
X-11638Y18099*
X-11639Y18099*
X-11641Y18097*
X-11641Y18096*
X-11643Y18094*
X-11644Y18094*
X-11646Y18092*
X-11646Y18091*
X-11647Y1809*
X-11648Y18089*
X-1165Y18087*
X-11651Y18086*
X-11652Y18085*
X-11653Y18084*
X-11655Y18082*
X-11656Y18081*
X-11657Y1808*
X-11658Y1808*
X-1166Y18077*
X-11661Y18076*
X-11662Y18075*
X-11663Y18075*
X-11665Y18073*
X-11665Y18071*
X-11667Y1807*
X-11668Y1807*
X-1167Y18067*
X-1167Y18066*
X-11671Y18066*
X-11672Y18065*
X-11675Y18063*
X-11675Y18062*
X-11676Y18061*
X-11677Y1806*
X-1168Y18058*
X-1168Y18057*
X-11681Y18056*
X-11682Y18056*
X-11685Y18053*
X-11685Y18052*
X-11686Y18051*
X-11687Y18051*
X-11689Y18048*
X-1169Y18047*
X-11691Y18046*
X-11692Y18046*
X-11694Y18043*
X-11695Y18042*
X-11695Y18042*
X-11696Y18041*
X-11699Y18038*
X-117Y18037*
X-11701Y18036*
X-11704Y18034*
X-11704Y18033*
X-11705Y18032*
X-11706Y18032*
X-11709Y18029*
X-11709Y18028*
X-1171Y18027*
X-11711Y18027*
X-11713Y18024*
X-11714Y18023*
X-11715Y18022*
X-11716Y18021*
X-11718Y18019*
X-11719Y18018*
X-1172Y18017*
X-11721Y18017*
X-11723Y18015*
X-11723Y18014*
X-11724Y18013*
X-11725Y18012*
X-11728Y1801*
X-11728Y18009*
X-11729Y18008*
X-1173Y18007*
X-11733Y18005*
X-11733Y18004*
X-11734Y18003*
X-11735Y18002*
X-11737Y18*
X-11737Y18*
X-11738Y17999*
X-11739Y17998*
X-1174Y17997*
X-11742Y17995*
X-11743Y17994*
X-11744Y17993*
X-11745Y17993*
X-11747Y17991*
X-11747Y1799*
X-11749Y17988*
X-11751Y17987*
X-11752Y17985*
X-11752Y17983*
X-12143Y17984*
X-12143Y18743*
X-12142Y18745*
X-12141Y18746*
X-12139Y18746*
X-11765Y18746*
X-11762Y18747*
X-11761Y1875*
X-11762Y18754*
X-11761Y19507*
X-1176Y19508*
X-11758Y19509*
X-11747Y19508*
G37*
G36*
X-12418Y18745D02*
X-12418Y18743D01*
X-12418Y17983*
X-13379Y17984*
Y1819*
Y18191*
X-13378Y18744*
X-13376Y18746*
X-12426Y18746*
X-1242Y18746*
X-12418Y18745*
G37*
G54D31*
X-35693Y33129D02*
D01*
D01*
G75*
G03X-35943I-00124J0D01*
G74*G01*
D01*
G75*
G03X-35693I00124J0D01*
G74*G01*
X-53847Y44476D02*
D01*
D01*
G75*
G03X-54097I-00124J0D01*
G74*G01*
D01*
G75*
G03X-53847I00125J0D01*
G74*G01*
X-23894Y04576D02*
D01*
D01*
G75*
G03X-24144I-00125J0D01*
G74*G01*
D01*
G75*
G03X-23894I00124J0D01*
G74*G01*
X-19432Y-25196D02*
D01*
D01*
G75*
G03X-19682I-00124J0D01*
G74*G01*
D01*
G75*
G03X-19432I00125J0D01*
G74*G01*
X-08719Y-09491D02*
D01*
D01*
G75*
G03X-08969I-00124J0D01*
G74*G01*
D01*
G75*
G03X-08719I00125J0D01*
G74*G01*
X-28432Y-10153D02*
D01*
D01*
G75*
G03X-28682I-00124J0D01*
G74*G01*
D01*
G75*
G03X-28432I00124J0D01*
G74*G01*
G54D32*
X-25842Y438D02*
X-22925D01*
X-18984Y-05954D02*
X-16067D01*
X-25842Y41543D02*
X-22925D01*
X-18984Y-03697D02*
X-16067D01*
X-26604Y-03951D02*
X-23687D01*
X-14111Y-02474D02*
Y00442D01*
X-16368Y-02474D02*
Y00442D01*
X-25842Y38241D02*
X-22925D01*
X-26604Y-06208D02*
X-23687D01*
X-25842Y40498D02*
X-22925D01*
X-31957Y-10703D02*
X-26207D01*
X-31957Y-23103D02*
Y-10703D01*
X-22075Y35447D02*
X-19159D01*
X-25512Y-22837D02*
Y-19921D01*
X-22075Y37704D02*
X-19159D01*
X-26207Y-23103D02*
Y-10703D01*
X-25842Y46594D02*
X-22925D01*
X-25842Y44337D02*
X-22925D01*
X-39006Y51674D02*
X-3609D01*
X-31957Y-23103D02*
X-26207D01*
X-39006Y49417D02*
X-3609D01*
X-17207Y-24721D02*
Y-14821D01*
X-22957Y-24721D02*
X-17207D01*
X-20632Y-14821D02*
X-17207D01*
X-22957D02*
X-22482D01*
X-23001Y-02517D02*
Y00398D01*
X-08316Y11825D02*
X-05399D01*
X-25258Y-02517D02*
Y00398D01*
X-22957Y-24721D02*
Y-14821D01*
X-39292Y49463D02*
X-38243Y46582D01*
X-4021Y51985D02*
X-3936Y49649D01*
X-54212Y46889D02*
X-4021Y51985D01*
X-24519Y07326D02*
Y11976D01*
X-16119Y07326D02*
Y11976D01*
X-52407Y41932D02*
X-52245Y41486D01*
X-43218Y41029D02*
X-38568D01*
X-43218Y32629D02*
X-38568D01*
X-54212Y46889D02*
X-5304Y43671D01*
X-52245Y41486D02*
X-38243Y46582D01*
X-08316Y14082D02*
X-05399D01*
X-19162Y-02474D02*
Y00442D01*
X01382Y15305D02*
Y18222D01*
X-00874Y15305D02*
Y18222D01*
X-03236Y14082D02*
X-00319D01*
X-03236Y11825D02*
X-00319D01*
X-01411Y15305D02*
Y18222D01*
X-07478Y15305D02*
Y18222D01*
X-16905Y-02474D02*
Y00442D01*
X-03668Y15305D02*
Y18222D01*
X-05221Y15305D02*
Y18222D01*
X-23255Y-22837D02*
Y-19921D01*
X-24242Y22417D02*
Y25334D01*
X-21985Y22417D02*
Y25334D01*
X-23255Y-1915D02*
Y-16234D01*
X-25512Y-1915D02*
Y-16234D01*
X-07046Y057D02*
X-04129D01*
X-07046Y03443D02*
X-04129D01*
X-28382Y21731D02*
X-25465D01*
X-28382Y23988D02*
X-25465D01*
X-21956Y43245D02*
Y46162D01*
X-19699Y43245D02*
Y46162D01*
X-28338Y17921D02*
X-25422D01*
X-28338Y20178D02*
X-25422D01*
X-11319Y-08716D02*
Y-08241D01*
Y-06391D02*
Y-02966D01*
X-03919Y-08716D02*
Y-02966D01*
X-11319D02*
X-03919D01*
X-11319Y-08716D02*
X-03919D01*
X-24242Y17845D02*
Y20762D01*
X-21985Y17845D02*
Y20762D01*
X-08494Y-0222D02*
Y00696D01*
X-06237Y-0222D02*
Y00696D01*
X-50941Y37403D02*
Y4032D01*
X-53198Y37403D02*
Y4032D01*
X-28382Y24525D02*
X-25465D01*
X-28382Y26782D02*
X-25465D01*
G54D33*
X-34581Y30009D02*
Y30263D01*
X-34835*
Y30009*
X-34581*
X-34327Y30263*
Y3077*
X-34581Y31024*
X-35089*
X-35343Y3077*
Y29755*
X-35089Y29501*
X-34327*
X-33819Y31024D02*
Y29501D01*
X-33058*
X-32804Y29755*
Y30009*
X-33058Y30263*
X-33819*
X-33058*
X-32804Y30517*
Y3077*
X-33058Y31024*
X-33819*
X-32042Y30517D02*
X-31534D01*
X-3128Y30263*
Y29501*
X-32042*
X-32296Y29755*
X-32042Y30009*
X-3128*
X-30772Y29501D02*
Y30517D01*
X-30011*
X-29757Y30263*
Y29501*
X-29249Y28993D02*
X-28995D01*
X-28741Y29247*
Y30517*
X-26964Y29501D02*
X-27472D01*
X-27725Y29755*
Y30263*
X-27472Y30517*
X-26964*
X-2671Y30263*
Y30009*
X-27725*
X-26202Y30517D02*
Y29501D01*
Y30009*
X-25948Y30263*
X-25694Y30517*
X-2544*
X-23663Y29501D02*
X-24678D01*
X-23663Y30517*
Y3077*
X-23917Y31024*
X-24425*
X-24678Y3077*
X-23155Y29501D02*
X-22647D01*
X-22901*
Y31024*
X-23155Y3077*
X-21885Y29247D02*
X-2087D01*
X-20362Y29501D02*
Y30517D01*
X-20108*
X-19854Y30263*
Y29501*
Y30263*
X-196Y30517*
X-19346Y30263*
Y29501*
X-18584Y30517D02*
X-18077D01*
X-17823Y30263*
Y29501*
X-18584*
X-18838Y29755*
X-18584Y30009*
X-17823*
X-17315Y29501D02*
Y31024D01*
Y30009D02*
X-16553Y30517D01*
X-17315Y30009D02*
X-16553Y29501D01*
X-1503D02*
X-15537D01*
X-15791Y29755*
Y30263*
X-15537Y30517*
X-1503*
X-14776Y30263*
Y30009*
X-15791*
X-14268Y29501D02*
X-13506D01*
X-13252Y29755*
X-13506Y30009*
X-14014*
X-14268Y30263*
X-14014Y30517*
X-13252*
X-2794Y16509D02*
X-26924D01*
X-27432*
Y14986*
X-26416Y16509D02*
Y14986D01*
Y15747*
X-26162Y16001*
X-25654*
X-254Y15747*
Y14986*
X-24892Y16001D02*
Y14986D01*
Y15493*
X-24639Y15747*
X-24385Y16001*
X-24131*
X-23115Y14986D02*
X-22607D01*
X-22353Y15239*
Y15747*
X-22607Y16001*
X-23115*
X-23369Y15747*
Y15239*
X-23115Y14986*
X-21592Y16255D02*
Y16001D01*
X-21845*
X-21338*
X-21592*
Y15239*
X-21338Y14986*
X-20322Y16255D02*
Y16001D01*
X-20576*
X-20068*
X-20322*
Y15239*
X-20068Y14986*
X-19306D02*
X-18798D01*
X-19052*
Y16509*
X-19306*
X-17275Y14986D02*
X-17783D01*
X-18037Y15239*
Y15747*
X-17783Y16001*
X-17275*
X-17021Y15747*
Y15493*
X-18037*
X-1499Y14986D02*
Y16509D01*
X-14228*
X-13974Y16255*
Y15747*
X-14228Y15493*
X-1499*
X-12451Y16255D02*
X-12704Y16509D01*
X-13212*
X-13466Y16255*
Y15239*
X-13212Y14986*
X-12704*
X-12451Y15239*
X-11943Y16509D02*
Y14986D01*
X-11181*
X-10927Y15239*
Y15493*
X-11181Y15747*
X-11943*
X-11181*
X-10927Y16001*
Y16255*
X-11181Y16509*
X-11943*
X-32266Y14406D02*
X-32932D01*
X-33265Y1474*
X-32932Y15073*
X-32266*
X-32766*
Y14406*
X-33099Y15406D02*
X-33265Y15573D01*
Y15906*
X-33099Y16073*
X-32432*
X-32266Y15906*
Y15573*
X-32432Y15406*
X-33099*
X-32266Y10001D02*
X-32932D01*
X-33265Y10334*
X-32932Y10668*
X-32266*
X-32766*
Y10001*
X-32266Y11001D02*
Y11334D01*
Y11167*
X-33265*
X-33099Y11001*
X-32266Y1212D02*
X-32932D01*
X-33265Y12454*
X-32932Y12787*
X-32266*
X-32766*
Y1212*
X-32266Y13787D02*
Y1312D01*
X-32932Y13787*
X-33099*
X-33265Y1362*
Y13287*
X-33099Y1312*
X-34894Y33449D02*
Y34115D01*
X-34561Y34448*
X-34227Y34115*
Y33449*
Y33948*
X-34894*
X-33894Y34282D02*
X-33728Y34448D01*
X-33394*
X-33228Y34282*
Y33615*
X-33394Y33449*
X-33728*
X-33894Y33615*
Y34282*
X-3083Y33449D02*
Y34115D01*
X-30497Y34448*
X-30163Y34115*
Y33449*
Y33948*
X-3083*
X-2983Y33449D02*
X-29497D01*
X-29664*
Y34448*
X-2983Y34282*
X-2702Y33449D02*
Y34115D01*
X-26687Y34448*
X-26353Y34115*
Y33449*
Y33948*
X-2702*
X-25354Y33449D02*
X-2602D01*
X-25354Y34115*
Y34282*
X-2552Y34448*
X-25854*
X-2602Y34282*
X-21889Y-12347D02*
X-22397D01*
X-22143*
Y-13617*
X-22397Y-13871*
X-22651*
X-22905Y-13617*
X-2062Y-13871D02*
Y-12347D01*
X-21382Y-13109*
X-20366*
X-28193Y13461D02*
Y12192D01*
X-27939Y11938*
X-27431*
X-27177Y12192*
Y13461*
X-25654Y11938D02*
X-2667D01*
X-25654Y12953*
Y13207*
X-25908Y13461*
X-26416*
X-2667Y13207*
X-41909Y38607D02*
Y37338D01*
X-41655Y37084*
X-41147*
X-40894Y37338*
Y38607*
X-40386Y37084D02*
X-39878D01*
X-40132*
Y38607*
X-40386Y38353*
X-10256Y-00485D02*
X-10764D01*
X-1051*
Y-01755*
X-10764Y-02009*
X-11018*
X-11272Y-01755*
X-09748Y-00739D02*
X-09495Y-00485D01*
X-08987*
X-08733Y-00739*
Y-00993*
X-08987Y-01247*
X-09241*
X-08987*
X-08733Y-01501*
Y-01755*
X-08987Y-02009*
X-09495*
X-09748Y-01755*
X-30881Y-07623D02*
X-31389D01*
X-31135*
Y-08892*
X-31389Y-09146*
X-31643*
X-31897Y-08892*
X-29358Y-09146D02*
X-30373D01*
X-29358Y-08131*
Y-07877*
X-29611Y-07623*
X-30119*
X-30373Y-07877*
X-36576Y48505D02*
X-36909D01*
X-36742*
Y47672*
X-36909Y47506*
X-37075*
X-37242Y47672*
X-36242Y47506D02*
X-35909D01*
X-36076*
Y48505*
X-36242Y48339*
M02*