%FSTAX23Y23*%
%MOMM*%
%SFA1B1*%

%IPPOS*%
%AMD23*
4,1,4,0.894080,-0.416560,0.416560,0.894080,-0.894080,0.416560,-0.416560,-0.894080,0.894080,-0.416560,0.0*
%
%ADD10R,0.599999X1.599997*%
%ADD11R,0.399999X1.599997*%
%ADD13R,1.599997X0.599999*%
%ADD14R,1.599997X0.399999*%
%ADD15R,1.456197X1.304637*%
%ADD17R,1.304637X1.456197*%
%ADD21C,1.099998*%
%ADD22C,1.399997*%
G04~CAMADD=23~10~0.0~551.2~0.0~0.0~0.0~0.0~0~0.0~0.0~0.0~0.0~0~0.0~0.0~0.0~0.0~0~0.0~0.0~0.0~290.0~551.2~0.0*
%ADD23D23*%
%ADD24R,1.399997X1.399997*%
%ADD28C,1.549997*%
%ADD29R,1.549997X1.549997*%
%ADD34R,0.710999X1.345997*%
%ADD35R,1.075998X1.425997*%
%ADD36R,1.425997X1.075998*%
%ADD37C,2.075996*%
%ADD38C,3.575993*%
%ADD39R,1.575997X1.575997*%
%ADD40C,1.575997*%
%ADD41C,1.703197*%
%LNthrottlerlidpcb_soldermask_top-1*%
%LPD*%
G54D10*
X-23994Y06151D03*
X-16644D03*
Y13151D03*
X-23994D03*
G54D11*
X-23244Y06151D03*
X-22594D03*
X-21944D03*
X-21294D03*
X-20644D03*
X-19994D03*
X-19344D03*
X-18694D03*
X-18044D03*
X-17394D03*
Y13151D03*
X-18044D03*
X-18694D03*
X-19344D03*
X-19994D03*
X-20644D03*
X-21294D03*
X-21944D03*
X-22594D03*
X-23244D03*
G54D13*
X-44393Y33154D03*
Y40504D03*
X-37393D03*
Y33154D03*
G54D14*
X-44393Y33904D03*
Y34554D03*
Y35204D03*
Y35854D03*
Y36504D03*
Y37154D03*
Y37804D03*
Y38454D03*
Y39104D03*
Y39754D03*
X-37393D03*
Y39104D03*
Y38454D03*
Y37804D03*
Y37154D03*
Y36504D03*
Y35854D03*
Y35204D03*
Y34554D03*
Y33904D03*
G54D15*
X-2413Y-01865D03*
Y-00254D03*
X00254Y15958D03*
Y17569D03*
X-0254Y15958D03*
Y17569D03*
X-0635Y15958D03*
Y17569D03*
X-18034Y-01821D03*
Y-0021D03*
X-1524Y-01821D03*
Y-0021D03*
X-24384Y-20574D03*
Y-22185D03*
X-20828Y45509D03*
Y43898D03*
X-24384Y-18498D03*
Y-16886D03*
X-5207Y38056D03*
Y39667D03*
X-07366Y00043D03*
Y-01567D03*
X-23114Y20109D03*
Y18498D03*
Y24681D03*
Y2307D03*
G54D17*
X-07663Y12954D03*
X-06052D03*
X-00972D03*
X-02583D03*
X-23578Y3937D03*
X-25189D03*
X-25951Y-0508D03*
X-2434D03*
X-23578Y42672D03*
X-25189D03*
X-1672Y-04826D03*
X-18331D03*
X-23578Y45466D03*
X-25189D03*
X-38354Y50546D03*
X-36742D03*
X-21423Y36576D03*
X-19812D03*
X-26074Y1905D03*
X-27686D03*
X-04782Y04572D03*
X-06393D03*
X-26118Y2286D03*
X-27729D03*
X-26118Y25654D03*
X-27729D03*
G54D21*
X-51925Y43092D03*
X-21557Y-15671D03*
X-10469Y-07316D03*
G54D22*
X-41709Y48939D03*
X-44058Y48084D03*
X-46407Y47229D03*
X-48756Y46374D03*
X-19558Y-19771D03*
Y-17272D03*
X-28557Y-15653D03*
Y-18153D03*
Y-20653D03*
G54D23*
X-51106Y45519D03*
G54D24*
X-19558Y-22271D03*
X-28557Y-13153D03*
G54D28*
X-06369Y-05316D03*
G54D29*
X-08869Y-05316D03*
G54D34*
X-2921Y1524D03*
X-30226D03*
X-31242D03*
X-2921Y12954D03*
X-30226D03*
X-31242D03*
X-2921Y10668D03*
X-30226D03*
X-31242D03*
X-32766Y32004D03*
X-33782D03*
X-34798D03*
X-28702D03*
X-29718D03*
X-30734D03*
X-24892D03*
X-25908D03*
X-26924D03*
G54D35*
X-25791Y0254D03*
X-23991D03*
X-08149Y07366D03*
X-0635D03*
X-04455D03*
X-02655D03*
X-06741Y23114D03*
X-04941D03*
X-10297Y2032D03*
X-08497D03*
X-10391Y0127D03*
X-12192D03*
X-32141Y3937D03*
X-30341D03*
X-26045Y-0762D03*
X-24245D03*
X-32141Y4318D03*
X-30341D03*
X-20965Y-1016D03*
X-19165D03*
X-32395Y4572D03*
X-30595D03*
X-32627Y50546D03*
X-34427D03*
X-15863Y36576D03*
X-17663D03*
X-26045Y-24638D03*
X-24245D03*
X-34935Y2032D03*
X-33135D03*
X-04687Y02032D03*
X-06487D03*
X-34935Y23114D03*
X-33135D03*
X-34935Y254D03*
X-33135D03*
X-16117Y1905D03*
X-17917D03*
X-16117Y2286D03*
X-17917D03*
G54D36*
X-20828Y-02032D03*
Y-00231D03*
X-02286Y24775D03*
Y22975D03*
X-20828Y39993D03*
Y41793D03*
X-24384Y-13323D03*
Y-15123D03*
X-49276Y38977D03*
Y40777D03*
X-04826Y00137D03*
Y-01661D03*
G54D37*
X-2794Y4572D03*
Y4318D03*
X-1778Y3937D03*
Y4318D03*
Y4572D03*
X-2794Y3937D03*
X-3048Y254D03*
Y2286D03*
X-2032Y1905D03*
Y2286D03*
Y254D03*
X-3048Y1905D03*
X-0635Y2032D03*
X0Y1016D03*
X-0254D03*
X-0635D03*
X-0254Y2032D03*
X0D03*
X-2159Y0254D03*
X-1524Y-0762D03*
X-1778D03*
X-2159D03*
X-1778Y0254D03*
X-1524D03*
G54D38*
X-2794Y0762D03*
X-127D03*
Y254D03*
G54D39*
X-02249Y03249D03*
G54D40*
X-02249Y-03249D03*
X02249D03*
G54D41*
X02249Y03249D03*
M02*